<svg xmlns="http://www.w3.org/2000/svg" version="1.1" xmlns:xlink="http://www.w3.org/1999/xlink" width="512" height="512" x="0" y="0" viewBox="0 0 100 100" style="enable-background:new 0 0 512 512" xml:space="preserve" class=""><g transform="matrix(6.123233995736766e-17,-1,-1,-6.123233995736766e-17,99.99952697753906,99.99952697753905)"><path d="M87.807 79.621c-15.425 19.523-43.76 22.85-63.282 7.437C-.579 67.22-4.86 30.8 14.975 5.695a6.441 6.441 0 0 1 9.04-1.062 6.425 6.425 0 0 1 2.44 5.051 6.424 6.424 0 0 1-1.388 3.99C9.653 33.194 12.981 61.53 32.503 76.953c13.94 11.014 34.178 8.64 45.202-5.31 11.013-13.951 8.639-34.178-5.312-45.202-8.368-6.601-20.508-5.181-27.12 3.187-6.613 8.368-5.182 20.509 3.186 27.12a6.443 6.443 0 0 0 9.04-1.061 6.443 6.443 0 0 0-1.062-9.04 6.443 6.443 0 0 1-1.062-9.041 6.443 6.443 0 0 1 9.04-1.062c8.368 6.612 9.8 18.752 3.187 27.12-6.612 8.369-18.752 9.8-27.12 3.187C26.53 55.84 24.156 35.602 35.17 21.651 46.194 7.701 66.42 5.326 80.37 16.34c19.522 15.425 22.85 43.76 7.436 63.281z" fill="#1d84ff" opacity="1" data-original="#000000" class=""></path></g></svg>